0
SECTION
2
HEADER
9
$INSUNITS
70
4
9
$ACADVER
1
AC1014
9
$HANDSEED
5
FFFF
0
ENDSEC
0
SECTION
2
TABLES
0
TABLE
2
VPORT
5
8
100
AcDbSymbolTable
0
ENDTAB
0
TABLE
2
LTYPE
5
5
100
AcDbSymbolTable
0
LTYPE
5
14
100
AcDbSymbolTableRecord
100
AcDbLinetypeTableRecord
2
BYBLOCK
70
0
0
LTYPE
5
15
100
AcDbSymbolTableRecord
100
AcDbLinetypeTableRecord
2
BYLAYER
70
0
0
ENDTAB
0
TABLE
2
LAYER
5
2
100
AcDbSymbolTable
70
2
0
LAYER
5
50
100
AcDbSymbolTableRecord
100
AcDbLayerTableRecord
2
0
70
0
6
CONTINUOUS
0
ENDTAB
0
TABLE
2
STYLE
5
3
100
AcDbSymbolTable
70
1
0
STYLE
5
11
100
AcDbSymbolTableRecord
100
AcDbTextStyleTableRecord
2
STANDARD
70
0
0
ENDTAB
0
TABLE
2
VIEW
5
6
100
AcDbSymbolTable
70
0
0
ENDTAB
0
TABLE
2
UCS
5
7
100
AcDbSymbolTable
70
0
0
ENDTAB
0
TABLE
2
APPID
5
9
100
AcDbSymbolTable
70
2
0
APPID
5
12
100
AcDbSymbolTableRecord
100
AcDbRegAppTableRecord
2
ACAD
70
0
0
ENDTAB
0
TABLE
2
DIMSTYLE
5
A
100
AcDbSymbolTable
70
1
0
ENDTAB
0
TABLE
2
BLOCK_RECORD
5
1
100
AcDbSymbolTable
70
1
0
BLOCK_RECORD
5
1F
100
AcDbSymbolTableRecord
100
AcDbBlockTableRecord
2
*MODEL_SPACE
0
BLOCK_RECORD
5
1B
100
AcDbSymbolTableRecord
100
AcDbBlockTableRecord
2
*PAPER_SPACE
0
ENDTAB
0
ENDSEC
0
SECTION
2
BLOCKS
0
BLOCK
5
20
100
AcDbEntity
100
AcDbBlockBegin
2
*MODEL_SPACE
0
ENDBLK
5
21
100
AcDbEntity
100
AcDbBlockEnd
0
BLOCK
5
1C
100
AcDbEntity
100
AcDbBlockBegin
2
*PAPER_SPACE
0
ENDBLK
5
1D
100
AcDbEntity
100
AcDbBlockEnd
0
ENDSEC
0
SECTION
2
ENTITIES
0
LWPOLYLINE
5
100
100
AcDbEntity
8
0
100
AcDbPolyline
90
14
70
1
43
0.0
10
-40.550001807278022
20
-63.523526330146211
10
-40.550001807278022
20
-83.175003095646389
10
-12.275000630528663
20
-83.175003095646389
10
-12.275000630528663
20
-65.023528767952129
10
-1.2250000000003158
20
-53.97352813742387
10
-1.225000000000076
20
-14.001471862576143
10
-13.12647186257616
20
-2.1000000000000019
10
-38.441839196273278
20
-2.1000000000000019
10
-50.800164500769007
20
-13.994888105577054
10
-50.79848474998041
20
-16.601861329506558
10
-55.698483732835982
20
-16.605018545345942
10
-55.676552626605599
20
-50.642095415477272
10
-50.776553643749871
20
-50.638938199637821
10
-50.774839887274041
20
-53.29868825015015
0
CIRCLE
5
101
100
AcDbEntity
8
0
100
AcDbCircle
10
1.1876039307930419
20
-47.807244977060748
30
0
40
0.80000000000000071
210
0
220
-0
230
1
0
CIRCLE
5
102
100
AcDbEntity
8
0
100
AcDbCircle
10
-25.459352706880331
20
0.30994986848603912
30
0
40
0.7999999999999996
210
0
220
-4.9303806576313238e-32
230
1
0
CIRCLE
5
103
100
AcDbEntity
8
0
100
AcDbCircle
10
-47.640566474730008
20
-59.881144856309014
30
0
40
0.79999999999999849
210
0
220
-0
230
1
0
LWPOLYLINE
5
104
100
AcDbEntity
8
0
100
AcDbPolyline
90
17
70
1
43
0.0
10
-7.2750006305286607
20
-84.175003095646389
10
-44.050001807278022
20
-84.175003095646389
10
-44.050001807278022
20
-66.246066004587846
10
-55.173665727281261
20
-55.122402084584536
10
-55.568973654170563
20
-54.74289833459526
42
-0.20405038722557239
10
-60.180877162929335
20
-43.931864783273404
10
-60.194157328288625
20
-23.321048145417997
42
-0.20405038722557331
10
-55.596189387376526
20
-12.504080398574601
10
-44.571375674160066
20
-1.8926971996038409
42
-0.19395156696767613
10
-34.16934672877882
20
2.2999999999999972
10
-17.517135623730987
20
2.3000000000000007
42
-0.19891236737965859
10
-6.9105339059327386
20
-2.0933982822018149
10
-1.218398282201872
20
-7.7855339059327111
42
-0.19891236737965892
10
3.1749999999998915
20
-18.392135623730994
10
3.1749999999997058
20
-49.5828643762691
42
-0.19891236737965684
10
-1.2183982822021133
20
-60.189466094067257
10
-7.2750006305286625
20
-66.246068442393778
0
ENDSEC
0
SECTION
2
OBJECTS
0
DICTIONARY
5
C
100
AcDbDictionary
3
ACAD_GROUP
350
D
3
ACAD_MLINESTYLE
350
17
0
DICTIONARY
5
D
100
AcDbDictionary
0
DICTIONARY
5
1A
330
C
100
AcDbDictionary
0
DICTIONARY
5
17
100
AcDbDictionary
0
ENDSEC
0
EOF
